<?xml version="1.0"?>
<svg version="1.1" xmlns="http://www.w3.org/2000/svg" width="296" height="75" style="border: dashed 2px #aaa"><path fill="#" d="M24.35,66.25q-4.4,3.4-6.45,3.4q-1.1,0-1.625-1.075t-0.525-2.325q0-2.4,2.025-7.2t3.875-4.8q0.95,0,1.625,3.75t1.375,5.45q3.4-3.6,9.85-12q8.1-10.65,10.75-11.65q0.9-0.35,1.85-0.35t1.575,0.4t0.625,1q0,0.85-1.45,1q-1.75,0.95-5.4,4.6q-3.65,3.55-5.85,6.65q-5.35,7.45-11,12.15q2.8,4.15,8.8,4.15q0.65,0,1.95-0.1q13.9-1.3,19.7-12.05q2.35-4.3,2.35-8.5t-3.05-7.55q-2.45-2.75-5.325-3.4t-5.875-0.65q-7.7,0-14.2,3.55q-6.85,3.75-6.85,8.4q0,1.25,0.675,2.05t0.925,0.9l-0.3,0q-1.3-0.25-2.3-1.3q-1.1-1.3-1.1-2.75q0-5,6.275-8.6t14.725-3.6q3.9,0,8,0.9t7.45,4.3q3.85,4,3.85,9.05q0,3.75-2.2,7.75q-3.8,6.9-11.35,10.1q-6.05,2.55-13.05,2.55t-10.35-4.2z M17.55,66.05q0,1.55,0.6,2.7q2.15-0.95,5.2-3.95q-1.45-2.4-1.825-3.775t-0.525-3.625q-3.45,4.95-3.45,8.65z M24.7,52.05q0.05,0,0.1-0.05q0,0.1-0.025,0.1t-0.075-0.05z M65.8085,68.15q-0.55,0-1-0.15q-3.2-0.9-3.2-3.6q0-3.5,4.4-8.1t7.9-4.6q1.15,0,1.875,0.625t0.725,1.525q0,2.8-4.225,5.35t-6.875,2.55q-0.4,0-0.7-0.1q-0.75,1.35-0.75,2.85q0,2.6,2.475,2.6t6.425-3.35q3.05-2.45,5.2-5.2q0.45-0.6,0.775-0.6t0.325,0.3t-0.4,0.85q-2.7,3.55-6.5,6.3t-6.45,2.75z M75.2585,53.75q0-0.6-1.275-0.6t-3.625,1.95q-3.15,2.6-4.9,5.45q0.3,0.1,0.65,0.1q1.9,0,5.075-2.025t3.975-4.425q0.1-0.25,0.1-0.45z M89.717,55.05q0-3.4,2.1-3.4q0.2,0,0.45,0.05q0.85,0.15,0.85,1.3t-0.4,2.9q-0.4,1.3-0.55,1.95q0.15,0.85,0.825,2.175t1.85,1.325t2.625-1.6q0.3-0.35,0.575-0.35t0.3,0.325t-0.375,0.875q-1.55,1.85-3.25,1.85q-2.45,0-3.95-3.6q-1.55,3.55-4.4,6.125t-5.65,2.575q-2.65,0-2.65-4q0-3.15,5.875-11.6t8.975-8.45q0.65,0,1.175,0.4t0.525,0.95q0-0.05-0.725,0.75t-3.95,4.3t-6.325,7.7t-3.1,6.5q0,0.6,0.325,1.3t1.075,0.7q2.2,0,5.15-3.4q2.45-3,3-5.05q-0.35-1.05-0.35-2.6z M115.3755,52.55l0.7-0.15q0.55,0,1.05,0.45t0.5,0.7t-3.1,4.825t-3.1,6.375q0,0.15,0.05,0.3q0.25,1.15,1.1,1.15q2.6,0,9.5-8.6q0.15-0.2,0.35-0.2t0.2,0.375t-0.45,0.975q-6.4,8.55-9.75,8.55q-0.45,0-0.85-0.15q-2.2-0.85-2.2-3.3q0-0.85,0.2-1.7l-3.1,3q-2.95,2.6-4.275,2.6t-2.525-0.85q-1.35-1-1.35-2.65q0-3.65,5.1-8.725t9.35-5.075q1.65,0,2.2,1.15q0.15,0.4,0.25,0.675t0.15,0.275z M100.4255,64.85q0,1.8,1.25,1.8q2.9,0,7.9-6.35l5.3-7.3q-0.4-0.7-1.3-0.7q-3.05,0-8.1,4.725t-5.05,7.825z M130.784,66.75q-1.45,0.85-3.575,0.85t-3.25-1.4t-1.925-4.45q-0.9,0.9-1.25,0.9q-0.25,0-0.25-0.35t0.25-0.6q1.65-2.05,5.6-5.9l6.3-5.9q2.7-2.55,3.2-2.55q1.6,0,1.6,1.2q0,0.6-0.475,1.175t-0.7,0.9t-0.475,0.625q-0.9,1.55-1.825,6.4t-1.425,6.75q4.15-0.05,8.55-5.4q0.5-0.5,0.75-0.5t0.25,0.325t-0.45,0.875q-2.9,3.4-5.4,4.75q-1.5,0.75-3.9,1.25z M124.034,61.2q0,1.7,1.125,2.775t2.525,1.075t2.15-0.55q1-0.55,1.975-4.6t1.175-7.15l0.2-1.7q-2.75,2.05-5.875,5.3t-3.225,4.3q-0.05,0.3-0.05,0.55z M153.5925,67.3q-2.95,0-2.95-3.45q0-1.95,1.375-4.325t3.375-5.575q-6.4,3.2-11.6,9.45q-2.9,4.35-3.4,4.35q-1.45,0-1.45-0.85q0-0.45,0.6-1.6q4.85-8.65,7.35-12.65q5.95-9.55,8.4-10.35q0.1-0.05,0.2-0.05q0.65,0,0.9,1.05q-0.15,1.05-5.2,7.6q-5.25,6.65-5.95,8.7q1.85-1.35,6.45-4.55q4.95-3.45,6.55-3.45t1.6,1.25q0,0.2-0.025,0.275t-3.475,4.725t-3.45,6.85q0,1.15,0.85,1.15q2.7-0.1,8.1-6.5q0.45-0.45,0.675-0.45t0.225,0.3q0,1-4.95,5.4q-3.1,2.7-4.2,2.7z M175.026,47.575q0.675,0.475,0.675,1.125t-0.625,1.125t-1.375,0.475t-1.375-0.55t-0.625-1.25q0-1.4,1.9-1.4q0.75,0,1.425,0.475z M164.551,68.05q-2.55,0-2.55-3.3q0-2.7,2.95-7.475t4.75-4.825q0.5,0,1.125,0.4t0.625,0.8q-0.25,0.35-0.6,0.775t-0.75,0.925t-1.1,1.425t-1.35,1.775q-3.75,4.85-3.75,6.675t1.25,1.825q1.05,0,2.85-1.15q4.2-2.6,6.65-5.7q0.9-1.15,1.225-1.15t0.325,0.4t-1.15,1.6t-1.825,1.9t-0.925,0.925t-0.925,0.85t-1.025,0.875t-1,0.75t-1.15,0.725t-1.15,0.525q-1.05,0.45-2.5,0.45z M185.4595,66.75q-1.45,0.85-3.575,0.85t-3.25-1.4t-1.925-4.45q-0.9,0.9-1.25,0.9q-0.25,0-0.25-0.35t0.25-0.6q1.65-2.05,5.6-5.9l6.3-5.9q2.7-2.55,3.2-2.55q1.6,0,1.6,1.2q0,0.6-0.475,1.175t-0.7,0.9t-0.475,0.625q-0.9,1.55-1.825,6.4t-1.425,6.75q4.15-0.05,8.55-5.4q0.5-0.5,0.75-0.5t0.25,0.325t-0.45,0.875q-2.9,3.4-5.4,4.75q-1.5,0.75-3.9,1.25z M178.7095,61.2q0,1.7,1.125,2.775t2.525,1.075t2.15-0.55q1-0.55,1.975-4.6t1.175-7.15l0.2-1.7q-2.75,2.05-5.875,5.3t-3.225,4.3q-0.05,0.3-0.05,0.55z M208.268,67.3q-2.95,0-2.95-3.45q0-1.95,1.375-4.325t3.375-5.575q-6.4,3.2-11.6,9.45q-2.9,4.35-3.4,4.35q-1.45,0-1.45-0.85q0-0.45,0.6-1.6q4.85-8.65,7.35-12.65q5.95-9.55,8.4-10.35q0.1-0.05,0.2-0.05q0.65,0,0.9,1.05q-0.15,1.05-5.2,7.6q-5.25,6.65-5.95,8.7q1.85-1.35,6.45-4.55q4.95-3.45,6.55-3.45t1.6,1.25q0,0.2-0.025,0.275t-3.475,4.725t-3.45,6.85q0,1.15,0.85,1.15q2.7-0.1,8.1-6.5q0.45-0.45,0.675-0.45t0.225,0.3q0,1-4.95,5.4q-3.1,2.7-4.2,2.7z"/><path fill="#007a56" d="M223.9157578125,28.5400390625q0-1.708984375,0.5859375-2.294921875t1.6357421875-0.5859375q0.29296875,0,0.62255859375,0.048828125t0.62255859375,0.146484375q1.6357421875-0.3173828125,3.1005859375-0.3173828125q2.3681640625,0,4.296875,0.830078125q3.1005859375,1.318359375,5.126953125,3.90625t2.978515625,6.0791015625t0.9521484375,7.1533203125q0,2.05078125-0.28076171875,4.2724609375t-1.08642578125,4.1259765625q-0.7080078125,1.708984375-1.953125,3.57666015625t-2.81982421875,3.5400390625t-3.3935546875,2.9296875t-3.67431640625,1.69677734375l0,0.1953125q0,0.48828125-0.25634765625,0.79345703125t-0.62255859375,0.4638671875t-0.84228515625,0.20751953125t-0.89111328125,0.048828125q-0.244140625,0-0.69580078125-0.048828125t-0.87890625-0.18310546875t-0.72021484375-0.35400390625t-0.29296875-0.6103515625q0-4.443359375-0.23193359375-8.89892578125t-0.52490234375-8.9111328125t-0.52490234375-8.89892578125t-0.23193359375-8.9111328125z M228.530015625,27.294921875q0.244140625,2.34375,0.3173828125,4.67529296875t0.2197265625,4.67529296875q0.390625,6.0546875,0.9033203125,12.04833984375t0.6103515625,12.04833984375q2.34375-1.5380859375,4.01611328125-3.515625t2.74658203125-4.296875t1.57470703125-4.87060546875t0.50048828125-5.26123046875q0-1.953125-0.341796875-4.296875t-1.171875-4.5166015625t-2.23388671875-3.9306640625t-3.50341796875-2.5146484375q-0.439453125-0.146484375-1.06201171875-0.244140625t-1.98974609375-0.09765625q-0.146484375,0-0.29296875,0.048828125t-0.29296875,0.048828125z M248.81004492188,54.39453125q0-1.708984375,0.37841796875-4.0283203125t1.28173828125-4.39453125t2.38037109375-3.52783203125t3.72314453125-1.45263671875q2.099609375,0,3.1494140625,1.20849609375t1.0498046875,3.25927734375q0,1.3427734375-0.50048828125,2.94189453125t-1.42822265625,3.02734375t-2.197265625,2.38037109375t-2.83203125,0.9521484375l-0.634765625-0.048828125q0,0.6591796875,0.1953125,1.77001953125t0.57373046875,2.20947265625t0.9765625,1.9287109375t1.45263671875,0.830078125q1.2451171875,0,2.392578125-1.0009765625t2.1728515625-2.2216796875t1.904296875-2.2216796875t1.611328125-1.0009765625q0.390625,0,0.8056640625,0.1220703125t0.4638671875,0.68359375q0,0.341796875-0.18310546875,0.5615234375t-0.32958984375,0.48828125q-0.7568359375,1.2939453125-1.64794921875,2.4658203125t-2.01416015625,2.1240234375t-2.45361328125,1.50146484375t-2.94189453125,0.54931640625q-2.099609375,0-3.4912109375-0.74462890625t-2.24609375-2.001953125t-1.23291015625-2.9052734375t-0.37841796875-3.45458984375z M253.18016210938,52.5390625l0.68359375,0.6103515625q0.48828125,0.439453125,0.9765625,0.1953125t0.87890625-0.89111328125t0.72021484375-1.59912109375t0.5859375-1.953125t0.37841796875-1.953125t0.1220703125-1.5869140625l0-0.830078125t-0.0732421875-0.87890625t-0.25634765625-0.69580078125t-0.57373046875-0.35400390625q-0.1220703125-0.0244140625-0.2197265625-0.0244140625q-0.830078125,0-1.416015625,1.0498046875q-0.634765625,1.171875-1.025390625,2.84423828125t-0.5615234375,3.43017578125t-0.2197265625,2.63671875z M268.21116796875,44.3115234375q0-0.1953125,0.23193359375-0.35400390625t0.52490234375-0.23193359375t0.59814453125-0.09765625t0.45166015625-0.0244140625q1.0986328125,0,1.8798828125,0.9765625t1.35498046875,2.50244140625t0.9765625,3.369140625t0.76904296875,3.67431640625t0.72021484375,3.35693359375t0.79345703125,2.35595703125q0.7568359375-1.4892578125,1.37939453125-3.5888671875t1.1474609375-4.345703125t0.927734375-4.43115234375t0.64697265625-3.82080078125q0.09765625-0.439453125,0.6103515625-0.54931640625t0.8544921875-0.10986328125q0.5615234375,0,0.9765625,0.15869140625t0.4150390625,0.69580078125q0,0.9033203125-0.2197265625,2.45361328125t-0.59814453125,3.47900390625t-0.87890625,3.955078125t-1.07421875,3.84521484375t-1.1962890625,3.22265625t-1.23291015625,1.98974609375q-0.29296875,0.341796875-0.91552734375,0.47607421875t-1.03759765625,0.13427734375q-1.4404296875,0-2.392578125-0.7568359375l0,0.048828125q-1.4892578125-1.3916015625-2.197265625-3.3935546875t-1.025390625-4.1748046875t-0.57373046875-4.3212890625t-0.86669921875-3.90625q-0.09765625-0.1953125-0.244140625-0.57373046875t-0.341796875-0.7568359375t-0.32958984375-0.72021484375t-0.13427734375-0.537109375z"/></svg>
